# xmcd
#
# Track frame offsets:
#	150
#	16482
#	29205
#	45392
#	61182
#	80528
#	93558
#	108246
#	120515
#	135612
#	149561
#
# Disc length: 2163 seconds
#
# Revision: 0
# Processed by: cddbd v1.5.2PL0 Copyright (c) Steve Scherf et al.
# Submitted via: EasyCDDAExtractor 11.9.9.666
#
DISCID=9508710b
DTITLE=Vendus Bailey - Poor Mountain Girl
DYEAR=1900
DGENRE=Jordan Recording
TTITLE0=Poor Mountain Girl
TTITLE1=Have Faith
TTITLE2=Go Rest High On That Mountain
TTITLE3=Troublesome Waters
TTITLE4=Two Coats
TTITLE5=Appalachia
TTITLE6=Another Day Has Come And Gone
TTITLE7=He Picked Me Up When The World Let Me Down
TTITLE8=How Long Has It Been
TTITLE9=Thank God For The USA
TTITLE10=Jacob's Ladder
EXTD=
EXTT0=
EXTT1=
EXTT2=
EXTT3=
EXTT4=
EXTT5=
EXTT6=
EXTT7=
EXTT8=
EXTT9=
EXTT10=
PLAYORDER=
